<svg xmlns="http://www.w3.org/2000/svg" version="1.1" xmlns:xlink="http://www.w3.org/1999/xlink" width="1000" height="1000"><g clip-path="url(#SvgjsClipPath1114)"><rect width="1000" height="1000" fill="#ffffff"></rect><g transform="matrix(1.2587412587412588,0,0,1.2587412587412588,50,142.5174825174825)"><svg xmlns="http://www.w3.org/2000/svg" version="1.1" baseProfile="full" height="568" viewBox="466 231 715 568" width="715"><polygon fill="rgb(163,133,94)" points="766,723 766,762 805,762 805,723" stroke="none"></polygon><polygon fill="rgb(15,49,27)" points="808,533 929,682 1028,799 981,596 972,547 921,541" stroke="none"></polygon><polygon fill="rgb(14,50,28)" points="1181,231 466,461 677,720 733,501 1073,305 807,529 971,542" stroke="none"></polygon><polygon fill="rgb(163,133,94)" points="766.328 672.079 766.328 711.079 805.328 711.079 805.328 672.079" stroke="none" style="stroke-width: 1;"></polygon><polygon fill="rgb(163,133,94)" points="814.959 672.079 814.959 711.079 853.959 711.079 853.959 672.079" stroke="none" style="stroke-width: 1;"></polygon><polygon fill="rgb(163,133,94)" points="815.538 723.025 815.538 762.025 854.538 762.025 854.538 723.025" stroke="none" style="stroke-width: 1;"></polygon></svg></g></g><defs><clipPath id="SvgjsClipPath1114"><rect width="1000" height="1000" x="0" y="0" rx="400" ry="400"></rect></clipPath></defs></svg>